<?xml version="1.0" standalone="no"?><!DOCTYPE svg PUBLIC "-//W3C//DTD SVG 1.1//EN" "http://www.w3.org/Graphics/SVG/1.1/DTD/svg11.dtd"><svg t="1684230828214" class="icon" viewBox="0 0 1024 1024" version="1.1" xmlns="http://www.w3.org/2000/svg" p-id="15286" xmlns:xlink="http://www.w3.org/1999/xlink" width="200" height="200"><path d="M377.8 175.5c-6-27.6-21.5-51.3-45.6-65.2-51-29.5-121-3.7-156.4 57.5S153.2 302.6 204.2 332c11.6 6.7 24.3 10.6 37.3 11.8" fill="#333333" p-id="15287"></path><path d="M239.5 365c-16.4-1.5-31.9-6.4-46-14.5-30.3-17.5-50.5-47.7-56.9-85-6.2-35.9 1.2-74.4 20.7-108.3 19.6-33.9 49.2-59.5 83.4-72.1 35.6-13.1 71.8-10.7 102.1 6.8 28.5 16.4 48.3 44.5 55.8 79.1l-41.6 9c-4.9-22.7-17.5-40.9-35.4-51.2-19.1-11-42.5-12.3-66-3.7-24.9 9.1-46.6 28.1-61.2 53.4-29.4 50.9-20.2 111.5 20.6 135 8.7 5 18.3 8.1 28.6 9l-4.1 42.5z" fill="#333333" p-id="15288"></path><path d="M362.629163 415.227876a64 85.3 30 1 0 85.3-147.743934 64 85.3 30 1 0-85.3 147.743934Z" fill="#333333" p-id="15289"></path><path d="M563.237738 373.279271a85.3 64 60 1 0 110.851251-64 85.3 64 60 1 0-110.851251 64Z" fill="#333333" p-id="15290"></path><path d="M637.4 148.9c8.2-16 20.3-29.5 36.2-38.6 51-29.5 121-3.7 156.4 57.5 35.3 61.2 22.6 134.7-28.4 164.2-8.7 5-18 8.5-27.6 10.4" fill="#333333" p-id="15291"></path><path d="M778.1 363.3l-8.3-41.8c7.5-1.5 14.6-4.2 21.1-7.9 40.8-23.5 50-84.1 20.6-135-29.4-50.9-86.5-73.2-127.2-49.7-11.9 6.9-21.3 16.9-27.9 29.8l-38-19.4c10.2-20.1 25.7-36.5 44.6-47.4C693.2 74.4 729.4 72 765 85c34.2 12.6 63.8 38.2 83.4 72.1 19.6 33.9 27 72.4 20.7 108.3-6.5 37.4-26.7 67.6-56.9 85-10.5 6.2-22 10.5-34.1 12.9z" fill="#333333" p-id="15292"></path><path d="M512 661.3c-74.1 0-143.7-28.8-196.1-81.2-52.4-52.4-81.2-122-81.2-196.1s28.8-143.7 81.2-196.1c52.4-52.4 122-81.2 196.1-81.2s143.7 28.8 196.1 81.2c52.4 52.4 81.2 122 81.2 196.1s-28.8 143.7-81.2 196.1c-52.4 52.4-122 81.2-196.1 81.2z m0-512c-62.7 0-121.6 24.4-165.9 68.7s-68.8 103.3-68.8 166 24.4 121.6 68.7 165.9c44.3 44.3 103.3 68.7 165.9 68.7s121.6-24.4 165.9-68.7c44.3-44.3 68.7-103.3 68.7-165.9s-24.4-121.6-68.7-165.9c-44.2-44.4-103.1-68.8-165.8-68.8z" fill="#333333" p-id="15293"></path><path d="M505 492.8l-39-39c-6.5-6.5-1.9-17.7 7.3-17.7h78c9.2 0 13.9 11.2 7.3 17.7l-39 39c-4 4.1-10.5 4.1-14.6 0z" fill="#333333" p-id="15294"></path><path d="M425.3 313.3m-21.3 0a21.3 21.3 0 1 0 42.6 0 21.3 21.3 0 1 0-42.6 0Z" fill="#FFFFFF" p-id="15295"></path><path d="M595.9 313.3m-21.3 0a21.3 21.3 0 1 0 42.6 0 21.3 21.3 0 1 0-42.6 0Z" fill="#FFFFFF" p-id="15296"></path><path d="M297.9 542.3c-26.5 40.3-41.9 88.5-41.9 140.3 0 4.7 0.1 9.5 0.4 14.1 0.6 11.7 2.1 23.2 4.2 34.5 10.7 55.8 39.6 105.2 80.2 141.8M475 936c12.1 1.7 24.4 2.7 37 2.7 14.6 0 29-1.2 43-3.6m135.3-68.7c47.9-46.5 77.7-111.7 77.7-183.7 0-49.8-14.2-96.3-38.9-135.7" fill="#333333" p-id="15297"></path><path d="M512 960c-13.4 0-26.9-1-40.1-2.9-11.7-1.7-19.7-12.5-18.1-24.2s12.5-19.7 24.2-18.1c24.2 3.5 49.3 3.2 73.4-0.9 11.6-2 22.6 5.9 24.6 17.5s-5.9 22.6-17.5 24.6c-15.2 2.7-30.9 4-46.5 4z m-171.2-65.6c-5.1 0-10.2-1.8-14.3-5.5-44.8-40.3-75.6-94.8-86.9-153.6-2.4-12.3-3.9-24.8-4.6-37.3-0.3-5.1-0.4-10.2-0.4-15.3 0-54.3 15.7-106.9 45.4-152.1 6.5-9.8 19.7-12.6 29.5-6.1s12.6 19.7 6.1 29.5c-25.1 38.2-38.4 82.7-38.4 128.6 0 4.3 0.1 8.7 0.4 13 0.6 10.6 1.9 21.2 3.9 31.6 9.6 49.7 35.7 95.9 73.6 129.9 8.8 7.9 9.5 21.4 1.6 30.1-4.2 4.8-10 7.2-15.9 7.2z m349.5-6.7c-5.6 0-11.1-2.2-15.3-6.5-8.2-8.5-8-22 0.5-30.2 46-44.6 71.3-104.4 71.3-168.4 0-44.1-12.3-87.1-35.6-124.3-6.3-10-3.2-23.2 6.8-29.4s23.2-3.2 29.4 6.8c27.5 44 42.1 94.8 42.1 147 0 38.2-7.6 75.1-22.6 109.9-14.5 33.6-35.2 63.6-61.6 89.1-4.3 4-9.7 6-15 6z" fill="#333333" p-id="15298"></path><path d="M256 874.7a85.3 64 0 1 0 170.6 0 85.3 64 0 1 0-170.6 0Z" fill="#333333" p-id="15299"></path><path d="M341.3 960c-27.4 0-53.4-8.2-73.1-23-21.3-16-33.5-38.7-33.5-62.3s12.2-46.3 33.5-62.3c19.8-14.8 45.8-23 73.1-23s53.4 8.2 73.1 23c21.3 16 33.5 38.7 33.5 62.3S435.8 921 414.5 937c-19.8 14.8-45.8 23-73.2 23z m0-128c-34.7 0-64 19.5-64 42.7s29.3 42.7 64 42.7 64-19.5 64-42.7-29.3-42.7-64-42.7z" fill="#333333" p-id="15300"></path><path d="M597.4 874.7a85.3 64 0 1 0 170.6 0 85.3 64 0 1 0-170.6 0Z" fill="#333333" p-id="15301"></path><path d="M682.7 960c-27.4 0-53.4-8.2-73.1-23-21.3-16-33.5-38.7-33.5-62.3s12.2-46.3 33.5-62.3c19.8-14.8 45.8-23 73.1-23s53.4 8.2 73.1 23c21.3 16 33.5 38.7 33.5 62.3S777.1 921 755.8 937c-19.8 14.8-45.8 23-73.1 23z m0-128c-34.7 0-64 19.5-64 42.7s29.3 42.7 64 42.7 64-19.5 64-42.7-29.3-42.7-64-42.7z" fill="#333333" p-id="15302"></path><path d="M341.4 874.7a85.3 64 0 1 0 170.6 0 85.3 64 0 1 0-170.6 0Z" fill="#FFFFFF" p-id="15303"></path><path d="M426.7 960c-27.4 0-53.4-8.2-73.1-23-21.3-16-33.5-38.7-33.5-62.3s12.2-46.3 33.5-62.3c19.8-14.8 45.8-23 73.1-23s53.4 8.2 73.1 23c21.3 16 33.5 38.7 33.5 62.3S521.1 921 499.8 937c-19.8 14.8-45.8 23-73.1 23z m0-128c-34.7 0-64 19.5-64 42.7s29.3 42.7 64 42.7 64-19.5 64-42.7-29.3-42.7-64-42.7z" fill="#333333" p-id="15304"></path><path d="M678.2 602.2c3.5 68.5-7.8 137.7-34 207.6 29.8 7.9 42.6 26.5 38.4 55.7l72.7-183.7-23.5-140.3-53.6 60.7z" fill="#333333" p-id="15305"></path><path d="M603.5 640c6.8 71.1-9.5 128-49.1 170.7 25.6 4.7 53.4 9.9 83.4 15.7l87.6-70.4-22-136.1-43-24.9-56.9 45z" fill="#333333" p-id="15306"></path><path d="M512 874.7a85.3 64 0 1 0 170.6 0 85.3 64 0 1 0-170.6 0Z" fill="#FFFFFF" p-id="15307"></path><path d="M597.3 960c-27.4 0-53.4-8.2-73.1-23-21.3-16-33.5-38.7-33.5-62.3s12.2-46.3 33.5-62.3c19.8-14.8 45.8-23 73.1-23s53.4 8.2 73.1 23c21.3 16 33.5 38.7 33.5 62.3S691.8 921 670.5 937c-19.8 14.8-45.8 23-73.2 23z m0-128c-34.7 0-64 19.5-64 42.7s29.3 42.7 64 42.7 64-19.5 64-42.7-29.3-42.7-64-42.7z" fill="#333333" p-id="15308"></path><path d="M352 603c-3.5 68.5 7.8 137.7 34 207.6-29.8 7.9-42.6 26.5-38.4 55.7l-72.7-183.7 23.5-140.3L352 603z" fill="#333333" p-id="15309"></path><path d="M420.2 640c-6.8 71.1 9.5 128 49.1 170.7-25.6 4.7-53.4 9.9-83.4 15.7L298.3 756l22-136.1 42.9-24.8 57 44.9z" fill="#333333" p-id="15310"></path></svg>