<?xml version="1.0" standalone="no"?><!DOCTYPE svg PUBLIC "-//W3C//DTD SVG 1.1//EN" "http://www.w3.org/Graphics/SVG/1.1/DTD/svg11.dtd"><svg t="1684230701221" class="icon" viewBox="0 0 1024 1024" version="1.1" xmlns="http://www.w3.org/2000/svg" p-id="5386" xmlns:xlink="http://www.w3.org/1999/xlink" width="200" height="200"><path d="M512.512 700.928c-71.168 0-130.56 34.816-146.432 81.92a260.096 260.096 0 0 0 293.376 0c-16.896-47.104-76.288-81.92-146.944-81.92z" fill="#AEC9FF" p-id="5387"></path><path d="M512.512 71.68c-243.2 0-440.32 197.12-440.32 440.32s197.12 440.32 440.32 440.32 440.32-197.12 440.32-440.32c0-242.688-197.12-440.32-440.32-440.32z m75.776 308.736c12.288-42.496 48.128-73.728 91.648-80.896 43.008-5.632 84.992 14.848 106.496 52.736 7.168 12.288-5.12 26.624-16.384 19.968-25.088-15.36-54.784-21.504-83.968-17.408-29.696 4.608-56.832 18.944-77.312 40.448-9.728 9.728-24.576-1.024-20.48-14.848z m-350.72-28.16c21.504-37.376 63.488-58.368 106.496-52.736 43.52 7.168 79.36 38.912 91.648 80.896 4.096 13.824-10.752 24.576-20.48 14.336-20.48-22.016-47.616-35.84-77.312-40.448-29.184-4.096-58.88 2.048-83.968 17.408-11.264 6.656-23.552-7.68-16.384-19.456z m274.944 501.248c-153.088 0-276.992-118.784-276.992-265.728 0-128 123.904-18.944 276.992-18.944s276.992-106.496 276.992 18.944c-0.512 146.432-124.416 265.728-276.992 265.728z" fill="#3366FF" p-id="5388"></path></svg>