<?xml version="1.0" standalone="no"?>
<!DOCTYPE svg PUBLIC "-//W3C//DTD SVG 20010904//EN"
 "http://www.w3.org/TR/2001/REC-SVG-20010904/DTD/svg10.dtd">
<svg version="1.0" xmlns="http://www.w3.org/2000/svg"
 width="200.000000pt" height="200.000000pt" viewBox="0 0 200.000000 200.000000"
 preserveAspectRatio="xMidYMid meet">

<g transform="translate(0.000000,200.000000) scale(0.100000,-0.100000)"
fill="#000000" stroke="none">
<path d="M592 1508 c-9 -9 -12 -131 -12 -507 0 -273 4 -502 8 -509 7 -9 58
-12 223 -10 l214 3 3 28 c6 53 -5 57 -184 57 l-164 0 0 430 0 430 164 0 c179
0 190 4 184 57 l-3 28 -210 3 c-155 2 -214 -1 -223 -10z"/>
<path d="M1226 1258 c-20 -29 -10 -46 82 -140 l77 -78 -237 0 c-224 0 -238 -1
-248 -19 -14 -27 -13 -37 6 -55 13 -14 50 -16 247 -16 l231 0 -87 -89 c-48
-49 -87 -94 -87 -100 0 -21 38 -50 58 -44 30 7 272 256 272 279 0 12 -53 75
-127 152 -134 139 -157 153 -187 110z"/>
</g>
</svg>
